<svg width="24" height="24" viewBox="0 0 24 24" fill="none" xmlns="http://www.w3.org/2000/svg">
<path opacity="0.1" fill-rule="evenodd" clip-rule="evenodd" d="M0 12C0 5.37258 5.37258 0 12 0C18.6274 0 24 5.37258 24 12C24 18.6274 18.6274 24 12 24C5.37258 24 0 18.6274 0 12Z" fill="#0B0D17"/>
<path fill-rule="evenodd" clip-rule="evenodd" d="M18.4 11.9907C18.4 12.4236 18.3559 12.8558 18.2694 13.2771C18.185 13.6884 18.06 14.0922 17.8962 14.4782C17.7362 14.8574 17.5378 15.2228 17.3059 15.5636C17.0775 15.9022 16.8143 16.2199 16.5252 16.5095C16.2355 16.7978 15.9168 17.0602 15.5783 17.2896C15.2364 17.5199 14.8705 17.7181 14.4911 17.8788C14.1045 18.0417 13.6998 18.1665 13.2888 18.2508C12.867 18.3375 12.4332 18.3818 11.9997 18.3818C11.5659 18.3818 11.1322 18.3375 10.7109 18.2508C10.2993 18.1665 9.89461 18.0417 9.50834 17.8788C9.12895 17.7181 8.76267 17.5199 8.42078 17.2896C8.08233 17.0602 7.76356 16.7978 7.47448 16.5095C7.1851 16.2199 6.92195 15.9022 6.69319 15.5636C6.46255 15.2228 6.26378 14.8574 6.10316 14.4782C5.93938 14.0922 5.81408 13.6884 5.72938 13.2771C5.64376 12.8558 5.6 12.4236 5.6 11.9907C5.6 11.5576 5.64374 11.1244 5.72941 10.7041C5.8141 10.2928 5.9394 9.88833 6.10318 9.50293C6.26381 9.12347 6.46258 8.75774 6.69322 8.41695C6.92198 8.07806 7.18513 7.76098 7.47451 7.47106C7.76359 7.1827 8.08235 6.9209 8.42081 6.69185C8.76269 6.46059 9.12898 6.26246 9.50836 6.10142C9.89464 5.93818 10.2993 5.81305 10.7109 5.72943C11.1322 5.64331 11.566 5.59961 11.9997 5.59961C12.4332 5.59961 12.867 5.64331 13.2888 5.72943C13.6998 5.81308 14.1045 5.9382 14.4911 6.10142C14.8705 6.26243 15.2365 6.46059 15.5783 6.69185C15.9168 6.9209 16.2356 7.1827 16.5253 7.47106C16.8143 7.76098 17.0775 8.07806 17.3059 8.41695C17.5378 8.75774 17.7362 9.1235 17.8962 9.50293C18.06 9.88833 18.185 10.2928 18.2694 10.7041C18.3559 11.1244 18.4 11.5576 18.4 11.9907ZM9.66769 7.05414C8.14353 7.77285 7.00597 9.17526 6.65126 10.8654C6.79535 10.8667 9.07297 10.8954 11.6972 10.1991C10.7512 8.52085 9.74051 7.15122 9.66769 7.05414ZM12.15 11.0396C9.33579 11.8809 6.63533 11.8203 6.53846 11.8166C6.53688 11.8753 6.53407 11.932 6.53407 11.9907C6.53407 13.3928 7.06379 14.671 7.93446 15.6375C7.93258 15.6347 9.4283 12.985 12.3778 12.0326C12.4491 12.0088 12.5216 11.9876 12.5935 11.967C12.4563 11.6568 12.3066 11.346 12.15 11.0396ZM15.6093 7.89455C14.647 7.04727 13.3835 6.53333 11.9997 6.53333C11.5556 6.53333 11.1246 6.58701 10.7118 6.68624C10.7937 6.7961 11.8203 8.15607 12.755 9.86991C14.8173 9.09788 15.5958 7.91451 15.6093 7.89455ZM12.966 12.8714C12.9538 12.8754 12.9417 12.8789 12.9298 12.8832C9.70497 14.0058 8.65186 16.2682 8.64047 16.2929C9.56835 17.0134 10.7322 17.4481 11.9997 17.4481C12.7566 17.4481 13.4776 17.2942 14.1336 17.0156C14.0526 16.5388 13.7351 14.8674 12.966 12.8714ZM15.0539 16.5169C16.2812 15.69 17.1527 14.3768 17.3959 12.8557C17.2834 12.8196 15.7542 12.3362 13.9901 12.6186C14.707 14.5859 14.9983 16.188 15.0539 16.5169ZM13.1757 10.6832C13.3026 10.9434 13.4254 11.2083 13.5389 11.4746C13.5792 11.5701 13.6186 11.6637 13.657 11.7573C15.5346 11.5214 17.3844 11.9183 17.4634 11.9345C17.4509 10.6407 16.9875 9.4533 16.2206 8.52368C16.2103 8.53831 15.3337 9.80312 13.1757 10.6832Z" fill="#0B0D17"/>
</svg>
