<svg width="1920" height="213" viewBox="0 0 1920 213" fill="none" xmlns="http://www.w3.org/2000/svg">
<mask id="mask0_11_478" style="mask-type:alpha" maskUnits="userSpaceOnUse" x="0" y="0" width="1920" height="213">
<rect width="1920" height="213" fill="#FF9800"/>
</mask>
<g mask="url(#mask0_11_478)">
<g opacity="0.3">
<ellipse cx="1312.79" cy="69.3737" rx="169.819" ry="159.819" fill="white"/>
<ellipse cx="1312.79" cy="69.3737" rx="169.819" ry="159.819" fill="white"/>
</g>
<g opacity="0.3">
<ellipse cx="1312.79" cy="69.3749" rx="130.16" ry="122.496" fill="white"/>
<ellipse cx="1312.79" cy="69.3749" rx="130.16" ry="122.496" fill="white"/>
</g>
<g clip-path="url(#clip0_11_478)">
<path d="M1329.46 83.0607L1333.6 78.9531L1337.74 83.0636L1333.6 87.1712L1329.46 83.0607Z" fill="white"/>
<path d="M1321.17 74.8395L1325.31 70.7305L1329.45 74.8395L1325.31 78.9485L1321.17 74.8395Z" fill="white"/>
<path d="M1312.88 66.6247L1317.02 62.5156L1321.17 66.6247L1317.02 70.7337L1312.88 66.6247Z" fill="white"/>
<path d="M1346.03 99.4977L1350.18 95.3887L1354.32 99.4977L1350.18 103.607L1346.03 99.4977Z" fill="white"/>
<path d="M1337.74 91.2784L1341.89 87.168L1346.03 91.277L1341.89 95.3875L1337.74 91.2784Z" fill="white"/>
<path d="M1303.06 137.773C1301.96 137.771 1300.95 137.158 1300.45 136.187L1295.16 125.894L1283.65 127.697C1282.39 127.905 1281.14 127.277 1280.56 126.148C1279.98 125.017 1280.21 123.647 1281.12 122.758L1289.36 114.59L1284.08 104.298C1283.51 103.175 1283.72 101.813 1284.62 100.923C1285.52 100.032 1286.89 99.8167 1288.02 100.389L1298.41 105.62L1306.64 97.4486C1307.54 96.5434 1308.92 96.3192 1310.06 96.8939C1311.2 97.4685 1311.83 98.7086 1311.62 99.9586L1309.76 111.396L1320.14 116.644C1321.27 117.218 1321.9 118.446 1321.7 119.689C1321.5 120.932 1320.52 121.906 1319.26 122.101L1307.76 123.909L1305.95 135.32C1305.75 136.563 1304.77 137.537 1303.52 137.735C1303.36 137.76 1303.21 137.773 1303.06 137.773V137.773ZM1296.8 119.776C1297.9 119.776 1298.91 120.39 1299.41 121.364L1301.57 125.568L1302.32 120.918C1302.52 119.675 1303.5 118.7 1304.76 118.503L1309.44 117.763L1305.2 115.621C1304.07 115.05 1303.44 113.822 1303.64 112.579L1304.38 107.916L1301.03 111.251C1300.13 112.14 1298.76 112.355 1297.63 111.782L1293.38 109.641L1295.55 113.846C1296.12 114.967 1295.9 116.33 1295.01 117.219L1291.64 120.561L1296.34 119.823C1296.5 119.794 1296.65 119.779 1296.8 119.776V119.776Z" fill="white"/>
<path d="M1382.97 75.1955L1368.47 60.811L1366.39 62.8655C1364.18 65.0974 1360.93 65.9799 1357.88 65.1783C1354.82 64.3752 1352.44 62.0114 1351.63 58.9835C1350.82 55.9571 1351.71 52.732 1353.96 50.537L1356.04 48.4825L1341.53 34.1008C1338.1 30.6956 1332.53 30.6956 1329.1 34.1008L1318.74 44.3734L1312.52 38.2099C1309.09 34.8046 1303.53 34.8046 1300.09 38.2099L1210.64 126.913C1207.21 130.318 1207.21 135.839 1210.64 139.243L1225.15 153.628L1227.22 151.573C1230.7 148.278 1236.17 148.278 1239.65 151.573C1243.09 154.977 1243.09 160.498 1239.65 163.902L1237.58 165.956L1252.09 180.343C1255.52 183.746 1261.08 183.746 1264.51 180.343L1274.87 170.068L1281.09 176.232C1284.52 179.635 1290.09 179.635 1293.52 176.232L1382.97 87.5226C1386.41 84.1173 1386.41 78.5965 1382.97 75.1926V75.1955ZM1260.37 176.229C1259.82 176.775 1259.07 177.081 1258.3 177.081C1257.52 177.081 1256.77 176.775 1256.22 176.229L1245.66 165.748C1249.51 159.985 1248.74 152.331 1243.81 147.443C1238.88 142.555 1231.16 141.789 1225.35 145.61L1214.78 135.134C1213.64 133.999 1213.64 132.16 1214.78 131.025L1304.23 42.3189C1304.78 41.7726 1305.53 41.4662 1306.31 41.4662C1307.09 41.4662 1307.83 41.7726 1308.38 42.3189L1314.6 48.4825L1239.65 122.808C1236.22 126.212 1236.22 131.73 1239.65 135.134L1254.15 149.519L1256.22 147.464C1259.66 144.059 1265.22 144.059 1268.66 147.464C1272.09 150.868 1272.09 156.389 1268.66 159.793L1266.58 161.847L1270.73 165.956L1260.37 176.229ZM1378.83 83.4164L1289.38 172.12C1288.23 173.255 1286.38 173.255 1285.23 172.12L1274.67 161.641C1278.51 155.879 1277.73 148.233 1272.8 143.352C1267.87 138.481 1260.17 137.711 1254.36 141.506L1243.79 131.025C1242.65 129.891 1242.65 128.051 1243.79 126.916L1333.24 38.2099C1333.79 37.665 1334.54 37.3571 1335.31 37.3571C1336.09 37.3571 1336.84 37.665 1337.39 38.2099L1347.95 48.6712C1344.11 54.4318 1344.88 62.0809 1349.81 66.9675C1354.73 71.8526 1362.45 72.6231 1368.26 68.8091L1378.83 79.2931C1379.97 80.4268 1379.97 82.2671 1378.83 83.4022L1378.83 83.4164Z" fill="white"/>
</g>
</g>
<defs>
<clipPath id="clip0_11_478">
<rect width="177.479" height="176" fill="white" transform="translate(1208.07 19)"/>
</clipPath>
</defs>
</svg>
